<svg xmlns="http://www.w3.org/2000/svg" width="19.281" height="15.363" viewBox="0 0 19.281 15.363" fill="none">
  <path d="M 4.552 4.545 C 6.33 1.074 9.889 -1.164 14.006 0.638 C 14.017 0.643 15.547 1.341 16.579 2.992 C 16.848 3.423 17.26 3.746 17.74 3.912 L 18.033 4.013 L 19.281 4.445 C 19.067 4.631 18.854 4.817 18.64 5.003 C 18.263 5.33 17.973 5.714 17.755 6.165 C 17.63 6.423 17.504 6.715 17.457 7.001 C 17.412 7.269 17.379 7.542 17.327 7.811 C 17.206 8.444 17.036 9.068 16.801 9.67 C 15.577 12.246 13.26 14.281 10.281 15.047 C 6.353 16.057 2.37 14.576 0 11.592 C 0.622 11.283 1.334 10.811 1.981 10.108 C 2.216 10.288 2.457 10.462 2.707 10.625 C 4.215 11.612 5.815 12.133 7.298 12.133 C 7.584 12.133 7.868 12.114 8.144 12.075 C 10.242 11.775 12.008 10.204 12.343 8.341 C 12.721 6.239 11.281 3.971 9.257 3.474 C 7.807 2.969 6.521 3.595 5.276 4.202 C 5.037 4.318 4.794 4.437 4.552 4.545 Z M 14.333 3.082 C 14.001 3.082 13.732 3.351 13.731 3.683 C 13.731 4.015 14.001 4.286 14.333 4.286 C 14.665 4.286 14.936 4.015 14.936 3.683 C 14.935 3.351 14.665 3.082 14.333 3.082 Z" fill="currentColor" fill-rule="evenodd"></path>
</svg>